<svg role="img" viewBox="0 0 300 300" xmlns="http://www.w3.org/2000/svg" id="Langchain--Streamline-Simple-Icons" height="300" width="300">
  <desc>
    Langchain Streamline Icon: https://streamlinehq.com
  </desc>
  <title>LangChain</title>
  <path d="M76.235 73.96875C34.19875 73.96875 0 108.0775 0 150s34.2 76.03125 76.235 76.03125h147.53C265.80125 226.03125 300 191.92249999999999 300 150s-34.2 -76.03125 -76.235 -76.03125ZM74.7175 98.1375c6.1625 0.155 12.75 3.1199999999999997 15.9125 7.785 4.5912500000000005 5.74 5.9725 13.334999999999999 11.18 18.665000000000003 7.005 7.6475 14.9875 14.381250000000001 21.451249999999998 22.525000000000002 6.115 7.442500000000001 10.4825 16.17125 14.295 24.96875 1.555 2.91875 1.57125 6.5024999999999995 3.875 8.99625 1.135 1.505 6.682499999999999 5.60375 5.478750000000001 7.05625 0.69375 1.505 5.8775 3.5749999999999997 4.078749999999999 5.03375 -2.4299999999999997 0.5 -5.16125 0.5950000000000001 -7.02 -1.3425 -0.6862499999999999 1.575 -2.2875 0.745 -3.5237499999999997 0.54a50 50 0 0 0 -0.3125 0.9199999999999999c-4.109999999999999 0.27375 -7.1925 -3.9074999999999998 -9.15 -7.062499999999999 -3.88875 -2.1 -8.3025 -3.3775 -12.275 -5.575 -0.2275 3.61875 0.565 8.10625 -2.8875 10.44125 -0.17500000000000002 6.95625 10.545 0.8200000000000001 11.5275 6.005 -0.7625 0.08375 -1.6075 -0.11875 -2.2175000000000002 0.46625 -2.79875 2.715 -6.00625 -2.05625 -9.231250000000001 -0.08750000000000001 -4.33 2.175 -4.760000000000001 3.95125 -10.12 4.3999999999999995 -0.29625 -0.44875000000000004 -0.17875 -0.74 0.07375 -1.0137500000000002 1.50875 -1.74875 1.6187500000000001 -3.8074999999999997 4.195 -4.55375 -2.6525 -0.4175 -4.87375 1.04125 -7.1075 2.19625 -2.90375 1.1875 -2.88 -2.67625 -7.3475 0.20500000000000002 -0.49500000000000005 -0.40249999999999997 -0.26 -0.76875 0.0225 -1.08 1.135 -1.38375 2.6275 -1.5875 4.3125 -1.51 -8.2875 -4.6075 -12.188749999999999 5.63375 -16.016250000000003 0.54 -1.15 0.30374999999999996 -1.58125 1.335 -2.30625 2.0650000000000004 -0.625 -0.685 -0.15375 -1.5150000000000001 -0.12375000000000001 -2.32125 -0.7474999999999999 -0.35000000000000003 -1.695 -0.5125000000000001 -1.4737500000000001 -1.7075 -1.4637499999999999 -0.49375 -2.485 0.36874999999999997 -3.5749999999999997 1.1900000000000002 -0.9837500000000001 -0.76 0.6649999999999999 -1.865 0.97 -2.65625 0.8775 -1.52 2.875 -0.3125 3.88875 -1.4075 2.8825 -1.635 6.9 1.0175 10.19375 0.56875 2.5375 0.31875 5.680000000000001 -2.28125 4.407500000000001 -4.875 -2.7137499999999997 -3.45875 -2.2375 -7.982499999999999 -2.29875 -12.11875 -0.335 -2.41125 -6.1375 -5.4775 -7.8149999999999995 -8.0775 -2.07375 -2.34125 -3.6875 -5.05875 -5.30375 -7.7275 -5.8325000000000005 -11.26 -3.9974999999999996 -25.729999999999997 -11.34625 -36.183749999999996 -3.325 1.8325 -7.656250000000001 0.9674999999999999 -10.522499999999999 -1.4874999999999998 -1.5474999999999999 1.40625 -1.6150000000000002 3.2474999999999996 -1.7375000000000003 5.20125 -3.7125 -3.7025 -3.2412499999999995 -10.69875 -0.27499999999999997 -14.81875 1.21125 -1.6275000000000002 2.65875 -2.96625 4.275 -4.1450000000000005 0.365 -0.26625 0.48875 -0.52375 0.48125 -0.9337500000000001 1.4675 -6.583749999999999 7.205 -9.23875 13.3675 -9.08375m155.08875 5.75c6.96875 0 13.5075 2.69875 18.425 7.602499999999999s7.625 11.43125 7.625 18.38c0 6.950000000000001 -2.70875 13.475000000000001 -7.625 18.3725v0.0075l-11.275 11.24375a26 26 0 0 1 -10.74625 6.4575l-0.20500000000000002 0.058750000000000004 -0.0725 0.20500000000000002a25.624999999999996 25.624999999999996 0 0 1 -5.925 9.135l-11.2725 11.24375c-4.9175 4.905 -11.4625 7.60375 -18.43125 7.60375s-13.5075 -2.7 -18.425 -7.60375c-10.1625 -10.13375 -10.1625 -26.6175 0 -36.7525l11.27375 -11.24375a25.7 25.7 0 0 1 10.725 -6.42875l0.21250000000000002 -0.06625 0.0725 -0.1975a25.874999999999996 25.874999999999996 0 0 1 5.94 -9.17125l11.2725 -11.24375c4.9175 -4.905 11.463750000000001 -7.60375 18.43125 -7.60375zm0 11.206249999999999a14.75 14.75 0 0 0 -10.485 4.3275l-11.2725 11.24375a14.762500000000001 14.762500000000001 0 0 0 -4.28375 11.565l0.06625 0.715c0.40375000000000005 3.315 1.8624999999999998 6.305 4.217499999999999 8.64625 1.625 1.6199999999999999 3.41625 2.6425 5.58875 3.3575a11.25 11.25 0 0 1 0.17500000000000002 1.9775 11.05 11.05 0 0 1 -3.2612500000000004 7.88l-0.6925 0.6925c-3.7662500000000003 -1.2850000000000001 -6.90625 -3.1625 -9.7425 -5.99a25.75 25.75 0 0 1 -7.201249999999999 -13.71l-0.12375000000000001 -0.7224999999999999 -0.57625 0.45999999999999996a13.750000000000002 13.750000000000002 0 0 0 -1.095 0.9924999999999999l-11.28 11.24375c-5.77875 5.7625 -5.77875 15.15 0 20.9125 2.88875 2.88125 6.6875 4.324999999999999 10.4925 4.32625 3.80375 0 7.59625 -1.4449999999999998 10.485 -4.3275l11.27375 -11.24375c5.77875 -5.7625 5.77875 -15.141250000000001 0 -20.9125a14.625 14.625 0 0 0 -5.458749999999999 -3.43625 12.5 12.5 0 0 1 -0.17500000000000002 -2.01375c0 -3.23875 1.27875 -6.3125 3.62625 -8.65375 3.77375 1.2850000000000001 7.124999999999999 3.3674999999999997 9.9525 6.1875 3.7587500000000005 3.74875 6.2425 8.4875 7.195 13.71l0.13125 0.7224999999999999 0.56875 -0.46625a13.750000000000002 13.750000000000002 0 0 0 1.1087500000000001 -0.9924999999999999l11.275 -11.245c5.7775 -5.7625 5.785 -15.155 0 -20.91875a14.75 14.75 0 0 0 -10.49375 -4.3275Zm-124.66250000000001 64.45875 -0.0075 0.0075c-0.99125 3.8475 -1.31 10.397499999999999 -6.325 10.5875 -0.41250000000000003 2.22 1.5350000000000001 3.05625 3.31875 2.3425000000000002 1.7624999999999997 -0.80625 2.6012500000000003 0.635 3.1962499999999996 2.07125 2.72125 0.39625 6.7425 -0.9062499999999999 6.895 -4.1225 -4.0625 -2.33375 -5.31625 -6.772499999999999 -7.077500000000001 -10.88625" fill="#fdfcff" stroke-width="12.5"></path>
</svg>